<?xml version="1.0" standalone="no"?>
<!DOCTYPE svg PUBLIC "-//W3C//DTD SVG 20010904//EN"
 "http://www.w3.org/TR/2001/REC-SVG-20010904/DTD/svg10.dtd">
<svg version="1.0" xmlns="http://www.w3.org/2000/svg"
 width="512.000000pt" height="512.000000pt" viewBox="0 0 512.000000 512.000000"
 preserveAspectRatio="xMidYMid meet">
<metadata>
Created by potrace 1.11, written by Peter Selinger 2001-2013
</metadata>
<g transform="translate(0.000000,512.000000) scale(0.100000,-0.100000)"
fill="#000000" stroke="none">
<path d="M2950 4468 c-18 -68 -50 -186 -71 -263 -81 -294 -180 -661 -184 -675
-8 -39 -87 -328 -95 -350 -5 -14 -16 -54 -25 -90 -9 -36 -29 -112 -45 -170
-58 -207 -512 -1875 -515 -1893 -4 -16 25 -17 485 -17 l489 0 11 38 c6 20 26
93 45 162 83 302 94 343 98 347 4 3 62 -132 106 -247 10 -25 25 -61 33 -80 9
-19 33 -76 53 -127 41 -101 52 -111 160 -139 47 -13 238 -13 291 -1 12 3 37 8
55 11 58 9 190 57 274 99 377 188 703 574 873 1032 23 61 46 130 52 155 6 25
15 56 20 70 5 14 12 37 15 53 3 15 7 37 10 50 36 176 41 436 11 562 -72 294
-242 472 -539 564 -37 11 -89 23 -115 27 -26 3 -50 8 -53 10 -14 8 -162 17
-269 17 -146 -1 -225 -8 -369 -33 -30 -6 -56 -9 -57 -7 -2 1 6 36 17 77 11 41
22 84 24 94 3 10 9 33 14 50 6 17 20 67 31 111 12 44 37 139 57 210 19 72 36
137 38 145 15 55 66 241 74 270 6 19 11 41 11 47 0 10 -103 13 -488 13 l-489
0 -33 -122z m930 -1536 c210 -69 260 -319 145 -716 -71 -246 -197 -443 -343
-539 -98 -65 -171 -89 -267 -90 -67 -1 -88 3 -130 25 -27 14 -63 40 -78 56
l-29 30 62 228 c34 126 89 328 122 449 33 121 68 252 78 290 10 39 26 97 35
130 19 69 23 85 24 102 1 13 43 28 121 43 68 13 210 9 260 -8z"/>
<path d="M1339 3536 c-2 -2 -31 -6 -64 -9 -365 -36 -647 -209 -781 -482 -56
-114 -74 -184 -81 -310 -12 -232 71 -396 269 -532 66 -46 283 -173 294 -173
12 0 121 -80 146 -106 49 -54 57 -146 17 -207 -25 -38 -73 -72 -128 -92 -44
-15 -172 -17 -233 -3 -24 5 -50 11 -58 13 -85 19 -273 106 -424 199 -61 36
-113 63 -117 59 -3 -5 -43 -144 -88 -310 -45 -167 -84 -309 -87 -317 -17 -45
423 -195 681 -232 204 -29 467 -28 565 1 8 3 33 7 55 11 86 13 247 74 345 131
266 153 420 399 420 670 0 100 -14 169 -50 249 -63 139 -177 237 -468 400
-187 104 -232 150 -233 237 -2 128 98 200 286 206 61 2 95 -2 191 -23 93 -19
231 -87 331 -162 l72 -54 15 53 c8 28 19 70 25 92 5 22 14 56 19 75 71 259
112 414 109 416 -1 0 -38 16 -82 36 -153 68 -347 125 -488 144 -17 2 -48 7
-67 10 -40 6 -385 15 -391 10z"/>
</g>
</svg>
